<?xml version="1.0" encoding="UTF-8"?>
<svg width="100pt" height="100pt" version="1.1" viewBox="0 0 100 100" xmlns="http://www.w3.org/2000/svg">
 <path d="m50 0.089844c-27.562 0-49.91 22.348-49.91 49.91s22.348 49.91 49.91 49.91 49.91-22.348 49.91-49.91-22.348-49.91-49.91-49.91zm27.871 79.906c-1.7109-2.1133-4.5898-2.6953-4.5898-2.6953 0.86719-10.113-3.1211-9.9648-3.1211-9.9648-4.1758-0.55469-4.0938 4.3359-4.0938 4.3359s-0.57812-6.9453 1.0508-17.367c1.5703-10.062-0.78125-11.004-0.78125-11.004-4.5977-1.1406-5.5742 6.168-6.3242 8.9844-0.74609 2.8125-2.4609 21.348-2.4609 21.348-0.41016 5.4883-1.5703 12.066-2.1992 16.895-1.7227 0.22266-3.4766 0.33594-5.2578 0.33594-6.7617 0-13.137-1.6406-18.758-4.5391l1.1016-6.2539c0.65625-5.3945 8.1133-3.1172 13.742-3.1523 5.6328-0.035157 5.4805-5.1055 5.1055-7.9453-0.39062-2.9609-0.11719-3.2188 1.3945-3.4844 1.5117-0.26562 3.2969 0.22656 3.7422-2.8789 0.13281-0.91406-1.0547-2.3906-1.0547-2.3906 3.5586-2.375-0.035157-5.0742-0.035157-5.0742-6.2305-4.0273-0.28125-4.3086 1.5469-5.2383 1.8203-0.92578 4.5117-3.9766-2.5938-10.594-7.1055-6.6172-4.6016-10.242-4.2109-12.16 1.2812-6.2578-0.48828-13.004-5.7891-17.785 1.8984-0.26953 3.8359-0.41016 5.8086-0.41016 22.617 0 40.953 18.336 40.953 40.953 0 11.895-5.0742 22.605-13.176 30.086z"/>
</svg>
