<?xml version="1.0" encoding="UTF-8"?>
<svg width="100pt" height="100pt" version="1.1" viewBox="0 0 100 100" xmlns="http://www.w3.org/2000/svg">
 <g>
  <path d="m73.801 36.137c-0.39453 0-0.78906 0.011719-1.1797 0.035156-3.7031-6.2305-9.7539-10.719-16.793-12.453-7.0391-1.7383-14.48-0.57812-20.656 3.2148-6.1797 3.7969-10.578 9.9102-12.211 16.973-4.5469-0.51953-9.1094 0.85547-12.609 3.8047-3.5 2.9492-5.6289 7.207-5.8906 11.777-0.26172 4.5664 1.3711 9.043 4.5156 12.371 3.1406 3.3242 7.5156 5.2109 12.094 5.2109h52.73c7.3086-0.003906 14.059-3.9062 17.711-10.238 3.6562-6.3281 3.6562-14.125 0-20.457-3.6523-6.3281-10.402-10.23-17.711-10.238zm0 35.934h-52.73c-3.3672-0.003906-6.5664-1.4648-8.7734-4.0078s-3.207-5.9141-2.7383-9.25c0.46875-3.332 2.3594-6.3008 5.1836-8.1367 2.8242-1.832 6.3047-2.3555 9.5391-1.4297 0.70312 0.20312 1.457 0.085937 2.0664-0.3125 0.60547-0.40234 1.0117-1.0469 1.1016-1.7695 0.76953-5.9023 3.8828-11.242 8.6406-14.812 4.7578-3.5703 10.754-5.0742 16.633-4.1641s11.141 4.1523 14.598 8.9961c-1.9961 0.66797-3.875 1.6367-5.5703 2.8789-1.1172 0.8125-1.3594 2.3789-0.54688 3.4922 0.8125 1.1172 2.3789 1.3594 3.4922 0.54687 2.0078-1.4688 4.3398-2.4297 6.8008-2.793 0.058594-0.007813 0.11719-0.015625 0.17188-0.023438 0.70703-0.097656 1.4219-0.14844 2.1328-0.14844 5.5234 0.007812 10.625 2.957 13.383 7.7383 2.7617 4.7852 2.7617 10.676 0 15.461-2.7578 4.7812-7.8594 7.7305-13.383 7.7344z"/>
  <path d="m56.492 47.199c-0.46875-0.46875-1.1055-0.73047-1.7656-0.73047-0.66406 0-1.3008 0.26172-1.7695 0.73047l-4.7734 4.7734-4.7773-4.7734c-0.97266-0.97656-2.5586-0.97656-3.5352 0-0.97266 0.97656-0.97266 2.5586 0.003906 3.5352l4.7734 4.7734-4.7734 4.7734c-0.97656 0.97656-0.97656 2.5625-0.003906 3.5352 0.97656 0.97656 2.5625 0.97656 3.5352 0.003906l4.7773-4.7773 4.7734 4.7773c0.97656 0.97266 2.5586 0.96875 3.5312-0.003906 0.97656-0.97656 0.97656-2.5547 0.003907-3.5352l-4.7734-4.7734 4.7734-4.7734c0.46875-0.46875 0.73047-1.1055 0.73047-1.7656 0-0.66406-0.26172-1.3008-0.73047-1.7695z"/>
 </g>
</svg>
