<?xml version="1.0" encoding="UTF-8"?>
<svg width="128pt" height="128pt" version="1.1" viewBox="0 0 128 128" xmlns="http://www.w3.org/2000/svg">
 <path d="m99.465 19.465-16 16.266v0.003906c-6.1328-2.6953-12.766-4.0781-19.465-4.0547-32.32 0-50.668 32.32-50.668 32.32 5.1914 8.418 11.945 15.77 19.895 21.652l-19.094 19.148 3.7344 3.7344 85.332-85.332zm-79.785 44.535c4.9609-7.2539 20.641-26.988 44.32-26.988 5.1641 0.003906 10.281 0.96094 15.094 2.8281l-7.3594 7.3086c-2.4102-1.1758-5.0547-1.7969-7.7344-1.8164-4.9492 0-9.6992 1.9688-13.199 5.4688s-5.4688 8.25-5.4688 13.199c0.019531 2.6797 0.64062 5.3242 1.8164 7.7344l-9.8164 10.078c-6.8438-4.8984-12.812-10.922-17.652-17.812zm34.453 16 25.867-25.867c1.8047 2.9727 2.7266 6.3906 2.668 9.8672 0 4.9492-1.9688 9.6992-5.4688 13.199s-8.25 5.4688-13.199 5.4688c-3.4766 0.058593-6.8945-0.86328-9.8672-2.668zm60.535-16s-17.492 32.32-50.668 32.32c-7.3945-0.027343-14.688-1.7227-21.332-4.9609l4.0547-4.0547-0.003906 0.003906c5.4609 2.4102 11.363 3.6641 17.336 3.6797 24.215 0 39.574-19.734 44.375-26.668h-0.003907c-5.1719-7.6328-11.742-14.219-19.359-19.414l3.8398-3.8945c8.75 6.0938 16.156 13.918 21.762 22.988z"/>
</svg>
