<svg width="103" height="52" viewBox="0 0 103 52" fill="none" xmlns="http://www.w3.org/2000/svg">
<g clip-path="url(#clip0_225_113)">
<path d="M40.96 8.58286H47.12V47.2514C47.12 49.56 48.9943 51.4343 51.3029 51.4343C53.6115 51.4343 55.4857 49.56 55.4857 47.2514V8.58286H61.6457C64.0172 8.58286 65.9372 6.66286 65.9372 4.29143C65.9372 1.92 64.0172 0 61.6457 0H40.9657C38.5943 0 36.6743 1.92 36.6743 4.29143C36.6743 6.66286 38.5943 8.58286 40.9657 8.58286H40.96Z" fill="white"/>
<path d="M14.6286 0C6.56571 0 0 6.73714 0 15.0171V36.4114C0 44.6914 6.56571 51.4286 14.6286 51.4286C22.6914 51.4286 29.2571 44.6914 29.2571 36.4114V15.0171C29.2629 6.73714 22.6971 0 14.6286 0ZM20.9029 36.4114C20.9029 39.96 18.0914 42.8457 14.6343 42.8457C11.1771 42.8457 8.36572 39.96 8.36572 36.4114V15.0171C8.36572 11.4686 11.1771 8.58286 14.6343 8.58286C18.0914 8.58286 20.9029 11.4686 20.9029 15.0171V36.4114Z" fill="white"/>
<path d="M94.2686 36.4114C94.2686 39.96 91.4572 42.8457 88 42.8457C84.5429 42.8457 81.7314 39.96 81.7314 36.4114V4.18286C81.7314 1.87429 79.8572 0 77.5486 0C75.24 0 73.3657 1.87429 73.3657 4.18286V36.4171C73.3657 44.6971 79.9314 51.4343 87.9943 51.4343C96.0572 51.4343 102.623 44.6971 102.623 36.4171V4.18286C102.623 1.87429 100.749 0 98.44 0C96.1314 0 94.2572 1.87429 94.2572 4.18286V36.4171L94.2686 36.4114Z" fill="white"/>
</g>
<defs>
<clipPath id="clip0_225_113">
<rect width="102.629" height="51.4286" fill="white"/>
</clipPath>
</defs>
</svg>
