<svg width="21" height="17" fill="none" xmlns="http://www.w3.org/2000/svg"><path d="M20.918 16.754H.289V2.407h4.845l.89-2.414h9.334l.738 2.414h4.822v14.347ZM1.375 15.68h18.457V3.479H15.29l-.738-2.413H6.784l-.89 2.413h-4.52v12.202Z" fill="#fff"/><path d="M10.603 14.34c-2.657 0-4.818-2.134-4.818-4.76 0-2.625 2.16-4.76 4.818-4.76 2.657 0 4.818 2.135 4.818 4.76 0 2.626-2.16 4.76-4.818 4.76Zm0-8.447c-2.057 0-3.732 1.655-3.732 3.687 0 2.033 1.675 3.688 3.732 3.688 2.058 0 3.732-1.655 3.732-3.688 0-2.032-1.675-3.687-3.732-3.687ZM18.43 4.82h-2.444v1.073h2.443V4.82Z" fill="#fff"/></svg>