<svg xmlns="http://www.w3.org/2000/svg" version="1.1" xmlns:xlink="http://www.w3.org/1999/xlink" xmlns:svgjs="http://svgjs.dev/svgjs" width="1000" height="1000"><g clip-path="url(#SvgjsClipPath1283)"><rect width="1000" height="1000" fill="#dfe2dd"></rect><g transform="matrix(1.2626262626262625,0,0,1.2626262626262625,5.684341886080802e-14,5.684341886080802e-14)"><svg xmlns="http://www.w3.org/2000/svg" version="1.1" xmlns:xlink="http://www.w3.org/1999/xlink" xmlns:svgjs="http://svgjs.dev/svgjs" width="792" height="792"><svg width="792" height="792" viewBox="0 0 792 792" fill="none" xmlns="http://www.w3.org/2000/svg">
<circle cx="396" cy="396" r="396" fill="#DFE2DD"></circle>
<g clip-path="url(#clip0_1018_24)">
<path d="M347.476 318.291H376.344V493.692C376.344 504.164 385.128 512.665 395.946 512.665C406.765 512.665 415.549 504.164 415.549 493.692V318.291H444.417C455.531 318.291 464.529 309.582 464.529 298.825C464.529 288.068 455.531 279.359 444.417 279.359H347.502C336.389 279.359 327.391 288.068 327.391 298.825C327.391 309.582 336.389 318.291 347.502 318.291H347.476Z" fill="#2C2F7E"></path>
<path d="M224.076 279.359C186.29 279.359 155.52 309.919 155.52 347.477V444.522C155.52 482.08 186.29 512.639 224.076 512.639C261.861 512.639 292.631 482.08 292.631 444.522V347.477C292.658 309.919 261.888 279.359 224.076 279.359ZM253.479 444.522C253.479 460.618 240.304 473.708 224.102 473.708C207.901 473.708 194.725 460.618 194.725 444.522V347.477C194.725 331.381 207.901 318.291 224.102 318.291C240.304 318.291 253.479 331.381 253.479 347.477V444.522Z" fill="#2C2F7E"></path>
<path d="M597.302 444.522C597.302 460.618 584.126 473.708 567.924 473.708C551.723 473.708 538.547 460.618 538.547 444.522V298.333C538.547 287.861 529.764 279.359 518.945 279.359C508.126 279.359 499.342 287.861 499.342 298.333V444.548C499.342 482.106 530.112 512.665 567.898 512.665C605.684 512.665 636.453 482.106 636.453 444.548V298.333C636.453 287.861 627.67 279.359 616.851 279.359C606.032 279.359 597.248 287.861 597.248 298.333V444.548L597.302 444.522Z" fill="#2C2F7E"></path>
</g>
<defs>
<clipPath id="clip0_1018_24">
<rect width="480.96" height="233.28" fill="white" transform="translate(155.52 279.359)"></rect>
</clipPath>
<clipPath id="SvgjsClipPath1283"><rect width="1000" height="1000" x="0" y="0" rx="500" ry="500"></rect></clipPath></defs>
</svg></svg></g></g></svg>