<?xml version="1.0" encoding="UTF-8"?>
<svg width="128pt" height="128pt" version="1.1" viewBox="0 0 128 128" xmlns="http://www.w3.org/2000/svg">
 <g fill="#fff">
  <path d="m63.719 78.59c-0.28125 0-0.66016-0.1875-0.75391-0.46875-0.28125-0.46875-0.1875-1.0352 0.28125-1.3164l14.117-9.0352c0.1875-0.09375 0.28125-0.1875 0.46875-0.1875h3.6719c0.56641 0 0.94141 0.375 0.94141 0.94141 0 0.56641-0.375 0.94141-0.94141 0.94141l-3.3867-0.007813-13.836 8.8477c-0.1875 0.1875-0.375 0.28516-0.5625 0.28516z"/>
  <path d="m124.23 69.555h-14.023c-0.56641 0-0.94141-0.375-0.94141-0.94141 0-0.56641 0.375-0.94141 0.94141-0.94141h14.023c0.56641 0 0.94141 0.375 0.94141 0.94141 0 0.5625-0.375 0.94141-0.94141 0.94141z"/>
  <path d="m3.7656 116.89c-0.28125 0-0.66016-0.1875-0.75391-0.46875-0.28125-0.46875-0.1875-1.0352 0.28125-1.3164l30.023-19.109c0.46875-0.28125 1.0352-0.1875 1.3164 0.28125s0.1875 1.0352-0.28125 1.3164l-30.117 19.203c-0.09375 0.09375-0.28125 0.09375-0.46875 0.09375z"/>
  <path d="m55.719 97.695c-0.84766 0-1.6953-0.375-2.3516-0.94141l-11.391-11.391 1.6953 4.1406c0.375 1.0352 0.375 2.1641-0.09375 3.1992s-1.3164 1.7891-2.3516 2.0703c-1.7891 0.56641-3.8594-0.1875-4.8008-1.8828-4.0508-7.2422-10.449-19.855-9.1328-25.125-3.1992-1.9766-16.566-10.73-24.281-22.023-0.28125-0.46875-0.1875-1.0352 0.28125-1.3164s1.0352-0.1875 1.3164 0.28125c8.4688 12.234 24.281 21.742 24.375 21.836 0.46875 0.28125 0.56641 0.75391 0.375 1.2227-1.4102 2.7305 1.9766 12.047 8.8477 24.281 0.46875 0.84766 1.6016 1.3164 2.543 1.0352 0.56641-0.1875 1.0352-0.56641 1.2227-1.1289 0.28125-0.56641 0.28125-1.1289 0-1.6953l-3.4805-8.4688c-0.1875-0.375 0-0.84766 0.375-1.1289s0.84766-0.1875 1.2227 0.09375l14.684 14.684c0.56641 0.56641 1.5078 0.56641 1.9766 0 0.56641-0.56641 0.56641-1.5078 0-1.9766l-10.82-10.824c-0.1875-0.1875-0.28125-0.46875-0.28125-0.66016 0-0.1875 0.09375-0.46875 0.28125-0.66016 0.375-0.375 0.94141-0.375 1.3164 0l12.238 12.238c0.66016 0.66016 1.7891 0.66016 2.4453 0 0.28125-0.28125 0.46875-0.75391 0.46875-1.2227s-0.1875-0.84766-0.46875-1.2227l-12.52-12.52c-0.375-0.375-0.375-0.94141 0-1.3164s0.94141-0.375 1.3164 0l11.859 11.859c0.56641 0.56641 1.5078 0.56641 1.9766 0 0.28125-0.28125 0.46875-0.66016 0.46875-1.0352s-0.1875-0.75391-0.46875-1.0352l-12.047-12.047c-0.375-0.375-0.375-0.94141 0-1.3164s0.94141-0.375 1.3164 0l8 8c0.56641 0.56641 1.4102 0.56641 1.9766 0 0.46875-0.46875 0.56641-1.2227 0.1875-1.8828-12.703-19.203-26.348-21.652-26.539-21.746-0.28125 0-0.46875-0.1875-0.56641-0.375l-33.883-45.176c-0.27734-0.37891-0.18359-0.94141 0.19141-1.2266 0.375-0.28125 1.0352-0.1875 1.3164 0.1875l33.602 44.895c2.4453 0.56641 15.246 4.0469 27.48 22.398 0.84766 1.3164 0.75391 3.1055-0.375 4.2344-0.28125 0.28516-0.75391 0.57031-1.2227 0.75781l1.8828 1.8828c1.3164 1.3164 1.3164 3.4805 0 4.8008-0.46875 0.46875-1.1289 0.75391-1.6953 0.94141 0.09375 0.375 0.1875 0.66016 0.1875 1.0352 0 0.94141-0.375 1.8828-1.0352 2.543-1.1289 1.1289-3.1055 1.3164-4.4219 0.46875-0.1875 0.46875-0.46875 0.94141-0.84766 1.3164-0.66016 0.5625-1.5039 0.94141-2.3516 0.94141z"/>
  <path d="m54.871 111.91c-0.1875 0-0.375-0.09375-0.56641-0.1875l-27.105-18.262c-0.28125-0.1875-0.375-0.46875-0.375-0.75391 0-0.28125 0.09375-0.56641 0.375-0.75391l6.7773-5.3633c0.375-0.28125 1.0352-0.28125 1.3164 0.1875 0.28125 0.375 0.28125 1.0352-0.1875 1.3164l-5.8359 4.6133 25.602 17.223 24.754-17.035-15.059-10.727c-0.46875-0.28125-0.56641-0.84766-0.1875-1.3164 0.28125-0.46875 0.84766-0.56641 1.3164-0.1875l16.094 11.387c0.28125 0.1875 0.375 0.46875 0.375 0.75391 0 0.28125-0.1875 0.56641-0.375 0.75391l-26.352 18.164c-0.19141 0.09375-0.37891 0.1875-0.56641 0.1875z"/>
  <path d="m104.85 80.66h-17.977c-3.4805 0-6.3047-2.8242-6.3047-6.3047v-20.707c0-3.0117 2.1641-5.5547 5.082-6.2109 0.66016-0.09375 1.2227-0.375 1.5078-0.75391 1.8828-2.1641 2.543-4.9883 2.0703-8.4688l-0.1875-1.0352h13.648l-0.1875 1.0352c-0.56641 3.4805 0.1875 6.3047 2.0703 8.4688 0.375 0.375 0.84766 0.66016 1.5078 0.75391 2.918 0.56641 5.082 3.1992 5.082 6.2109l-0.007812 20.703c0 3.4844-2.8242 6.3086-6.3047 6.3086zm-13.648-41.695c0.28125 3.5781-0.56641 6.4922-2.6367 8.8477-0.66016 0.75391-1.5078 1.2227-2.543 1.4102-2.0703 0.375-3.5781 2.2578-3.5781 4.3281l0.003906 20.801c0 2.4453 1.9766 4.4219 4.4219 4.4219h17.977c2.4453 0 4.4219-1.9766 4.4219-4.4219l0.003906-20.703c0-2.0703-1.5078-3.9531-3.5781-4.3281-1.1289-0.1875-1.9766-0.66016-2.543-1.4102-2.0703-2.3516-2.918-5.3633-2.6367-8.8477l-9.3125-0.003906z"/>
  <path d="m100.99 38.965h-10.352v-7.9062h10.352zm-8.375-1.8828h6.5898l-0.003906-4.1406h-6.5898z"/>
  <path d="m100.33 32.941h-9.2227l0.09375-1.0352c0.1875-1.4102-0.09375-2.6367-0.94141-3.5781-1.5078-1.7891-4.3281-1.9766-4.4219-1.9766h-4.2344v-9.5039l0.75391-0.09375c1.0352-0.1875 25.789-4.1406 28.613 7.5312l0.09375 0.1875v0.1875c-0.09375 0.56641-1.0352 2.6367-7.5312 3.8594-0.1875 0-3.6719 0.66016-3.3867 3.4805zm-7.2461-1.8828h5.1758c0.28125-2.918 3.1992-4.2344 4.8945-4.4219 4.2344-0.75391 5.5547-1.8828 5.9297-2.2578-2.6367-8.5664-21.555-6.4922-25.602-5.9297v6.0195h2.4453c0.1875 0 3.7656 0.28125 5.7422 2.6367 0.94531 1.1289 1.4141 2.4492 1.4141 3.9531z"/>
  <path d="m83.48 25.223-6.6836-0.84766v-5.2695l6.6836-0.84766zm-4.7969-2.5391 2.918 0.375v-2.6367l-2.918 0.375z"/>
  <path d="m82.918 33.508-0.75391-1.6953s4.707-2.2578 5.457-5.9297l1.8828 0.375c-0.9375 4.6133-6.3047 7.1523-6.5859 7.25z"/>
  <path d="m104.75 75.578h-17.789c-0.56641 0-0.94141-0.375-0.94141-0.94141v-12.047c0-0.375 0.1875-0.66016 0.56641-0.84766 7.5312-3.4805 13.648-12.141 13.648-12.234 0.1875-0.28125 0.56641-0.46875 0.94141-0.375s0.66016 0.375 0.75391 0.75391c0.46875 1.9766 1.5078 2.7305 3.1055 3.293 0.375 0.09375 0.66016 0.46875 0.66016 0.84766v20.613c-0.003907 0.46484-0.38281 0.9375-0.94531 0.9375zm-16.848-1.8828h15.906v-19.012c-1.2227-0.46875-2.3516-1.2227-3.1055-2.6367-2.0703 2.6367-6.9648 8.1875-12.801 11.199z"/>
 </g>
</svg>
