<svg width="78" height="39" fill="none" xmlns="http://www.w3.org/2000/svg"><g clip-path="url(#prefix__clip0_176_8)" fill="#000"><path d="M31.13 6.509h4.682v29.323a3.177 3.177 0 003.18 3.172 3.177 3.177 0 003.178-3.172V6.51h4.682a3.257 3.257 0 003.262-3.255A3.257 3.257 0 0046.852 0H31.135a3.257 3.257 0 00-3.262 3.254 3.257 3.257 0 003.262 3.255h-.005zM11.118 0C4.99 0 0 5.109 0 11.388v16.224C0 33.891 4.99 39 11.118 39s11.118-5.109 11.118-11.388V11.388C22.24 5.109 17.25 0 11.118 0zm4.769 27.612c0 2.691-2.137 4.88-4.765 4.88-2.627 0-4.764-2.189-4.764-4.88V11.388c0-2.691 2.137-4.88 4.764-4.88 2.628 0 4.765 2.189 4.765 4.88v16.224zM71.646 27.612c0 2.691-2.137 4.88-4.764 4.88-2.628 0-4.764-2.189-4.764-4.88V3.172A3.177 3.177 0 0058.938 0a3.177 3.177 0 00-3.178 3.172v24.444c0 6.28 4.99 11.388 11.118 11.388 6.127 0 11.118-5.109 11.118-11.388V3.172A3.177 3.177 0 0074.816 0a3.177 3.177 0 00-3.178 3.172v24.444l.008-.004z"/></g><defs><clipPath id="prefix__clip0_176_8"><path fill="#fff" d="M0 0h78v39H0z"/></clipPath></defs></svg>