<svg width="100pt" height="100pt" viewBox="0 0 100 100" xmlns="http://www.w3.org/2000/svg"><path d="M48.973 42.645L50 37.501l1.028 5.144a24.01 24.01 0 0018.828 18.828L75 62.5l-5.144 1.028a24.01 24.01 0 00-18.828 18.828L50 87.5l-1.027-5.144a24.01 24.01 0 00-18.828-18.828L25.001 62.5l5.144-1.027a24.01 24.01 0 0018.828-18.828zM28.652 19.238l.516-2.57.511 2.57a12.005 12.005 0 009.414 9.414l2.575.516-2.575.511a12.01 12.01 0 00-9.414 9.415l-.511 2.574-.516-2.574a12.005 12.005 0 00-9.414-9.415l-2.57-.511 2.57-.516a12 12 0 009.414-9.414zM70.492 22.547l.34-1.715.344 1.715a8 8 0 006.277 6.277l1.715.344-1.715.34a8.005 8.005 0 00-6.277 6.277l-.344 1.715-.34-1.715a8.01 8.01 0 00-6.277-6.277l-1.715-.34 1.715-.344a8.005 8.005 0 006.277-6.277z"/></svg>