<svg width="65" height="29" fill="none" xmlns="http://www.w3.org/2000/svg"><rect x=".5" y=".5" width="63.787" height="28" rx="14" stroke="#fff"/><path d="M31.82 19H29.68l3.264-9.455h2.576L38.778 19h-2.142l-2.369-7.294h-.074L31.822 19zm-.133-3.716h5.06v1.56h-5.06v-1.56zm10.228-5.739V19h-2V9.545h2z" fill="#fff"/><g clip-path="url(#prefix__clip0_152_340)" fill="#fff"><path d="M24.436 12.425c-.507-.057-.988-.384-1.356-.92a4.109 4.109 0 01-.656-2.086.23.23 0 00-.238-.223.232.232 0 00-.214.223 4.107 4.107 0 01-.656 2.086c-.368.536-.85.863-1.357.92a.234.234 0 00-.2.26.23.23 0 00.2.208c.508.057.989.384 1.357.92.401.618.628 1.34.656 2.086a.23.23 0 00.238.223.233.233 0 00.214-.223 4.12 4.12 0 01.656-2.086c.368-.536.849-.863 1.356-.92a.234.234 0 00.201-.26.23.23 0 00-.2-.208zM18.835 16.679c-.62-.07-1.123-.828-1.173-1.764a.17.17 0 00-.18-.165.172.172 0 00-.158.165c-.05.936-.553 1.694-1.173 1.764a.174.174 0 00-.15.193.172.172 0 00.15.156c.62.07 1.123.828 1.173 1.764a.17.17 0 00.18.164.172.172 0 00.158-.165c.05-.935.555-1.693 1.173-1.763a.175.175 0 00.15-.194.172.172 0 00-.15-.155zM16.992 10.534c.548 0 .993-.462.993-1.033 0-.57-.445-1.033-.993-1.033S16 8.931 16 9.501c0 .57.444 1.033.992 1.033z"/></g><defs><clipPath id="prefix__clip0_152_340"><path fill="#fff" transform="translate(16 8.468)" d="M0 0h8.638v10.489H0z"/></clipPath></defs></svg>