<svg width="51" height="51" fill="none" xmlns="http://www.w3.org/2000/svg"><circle cx="25.5" cy="25.5" r="25" fill="#000" stroke="#fff"/><g clip-path="url(#prefix__clip0_152_418)"><path d="M31.43 12a2.48 2.48 0 00-2.124 1.271l-11.86 21.041a.335.335 0 00-.041.155L17 39.632c-.02.263.32.466.53.319l4.168-2.945a.352.352 0 00.105-.109l6.025-10.717c.113-.157.062-.413-.102-.511-.163-.098-.405-.018-.48.161l-5.61 9.964-3.186-1.884 10.355-18.373 3.156 1.86-3.697 6.318a.373.373 0 00.116.483.346.346 0 00.466-.119l4.803-8.223c.715-1.222.286-2.816-.912-3.527a2.45 2.45 0 00-.946-.319 2.501 2.501 0 00-.361-.01zm-.085.69c.354-.025.718.056 1.052.252a1.871 1.871 0 01.67 2.55l-.766 1.302-3.155-1.86.745-1.313a1.81 1.81 0 011.457-.931h-.003zM18.106 34.52l3.186 1.873-.04.077-3.517 2.486.33-4.356.041-.077v-.004z" fill="#fff"/></g><defs><clipPath id="prefix__clip0_152_418"><path fill="#fff" transform="translate(17 12)" d="M0 0h17v28H0z"/></clipPath></defs></svg>