<svg width="14" height="14" fill="none" xmlns="http://www.w3.org/2000/svg"><g clip-path="url(#prefix__clip0_152_395)" fill="#fff"><path d="M6.569 4.484A2.101 2.101 0 004.47 6.583 2.11 2.11 0 006.57 8.68a2.11 2.11 0 002.098-2.098c0-1.15-.934-2.099-2.098-2.099z"/><path d="M7 0a7 7 0 00-7 7 7 7 0 007 7 7 7 0 007-7 7 7 0 00-7-7zm3.407 10.593a.61.61 0 01-.432.159.636.636 0 01-.43-.159L8.221 9.271l-.13.072a3.175 3.175 0 01-1.523.402 3.147 3.147 0 110-6.295 3.147 3.147 0 012.63 4.872l-.086.144 1.308 1.308a.64.64 0 01.172.417.653.653 0 01-.186.402z"/></g><defs><clipPath id="prefix__clip0_152_395"><path fill="#fff" d="M0 0h14v14H0z"/></clipPath></defs></svg>